<svg width="1208" height="340" viewBox="0 0 1208 340" fill="none" xmlns="http://www.w3.org/2000/svg">
<rect x="313.593" y="31" width="196" height="196" transform="rotate(45 313.593 31)" fill="#DED4FF"/>
<rect x="174.593" y="31" width="196" height="196" transform="rotate(45 174.593 31)" fill="#8A70D6"/>
<path d="M584.688 187.685L571.048 150.407C570.376 148.754 569.678 146.791 568.955 144.517C568.232 142.244 567.508 139.79 566.785 137.155C566.113 139.79 565.416 142.27 564.693 144.595C563.969 146.868 563.272 148.857 562.6 150.562L549.038 187.685H584.688ZM621.5 230H605.38C603.572 230 602.099 229.561 600.963 228.682C599.826 227.752 598.973 226.616 598.405 225.272L590.035 202.41H543.613L535.243 225.272C534.829 226.461 534.028 227.546 532.84 228.527C531.652 229.509 530.179 230 528.423 230H512.147L556.245 117.935H577.48L621.5 230ZM684.92 167.302C684.352 168.026 683.784 168.594 683.215 169.007C682.699 169.421 681.924 169.627 680.89 169.627C679.909 169.627 678.953 169.343 678.023 168.775C677.093 168.155 675.982 167.483 674.69 166.76C673.399 165.985 671.849 165.313 670.04 164.745C668.284 164.125 666.088 163.815 663.453 163.815C660.095 163.815 657.15 164.435 654.618 165.675C652.086 166.863 649.968 168.594 648.263 170.867C646.61 173.141 645.37 175.905 644.543 179.16C643.716 182.363 643.303 186.006 643.303 190.087C643.303 194.324 643.742 198.096 644.62 201.402C645.55 204.709 646.868 207.499 648.573 209.772C650.278 211.994 652.345 213.699 654.773 214.887C657.201 216.024 659.94 216.592 662.988 216.592C666.036 216.592 668.49 216.231 670.35 215.507C672.262 214.732 673.864 213.906 675.155 213.027C676.447 212.097 677.558 211.271 678.488 210.547C679.47 209.772 680.555 209.385 681.743 209.385C683.293 209.385 684.455 209.979 685.23 211.167L690.733 218.142C688.615 220.622 686.315 222.715 683.835 224.42C681.355 226.073 678.772 227.417 676.085 228.45C673.45 229.432 670.712 230.129 667.87 230.543C665.08 230.956 662.29 231.163 659.5 231.163C654.592 231.163 649.968 230.258 645.628 228.45C641.288 226.59 637.49 223.903 634.235 220.39C630.98 216.877 628.397 212.588 626.485 207.525C624.625 202.41 623.695 196.597 623.695 190.087C623.695 184.249 624.522 178.85 626.175 173.89C627.88 168.878 630.36 164.564 633.615 160.947C636.87 157.279 640.9 154.412 645.705 152.345C650.51 150.278 656.039 149.245 662.29 149.245C668.232 149.245 673.425 150.201 677.868 152.113C682.363 154.024 686.393 156.762 689.958 160.327L684.92 167.302ZM744.738 196.055C739.21 196.313 734.56 196.804 730.788 197.527C727.017 198.199 723.994 199.077 721.721 200.162C719.447 201.247 717.82 202.513 716.838 203.96C715.857 205.407 715.366 206.982 715.366 208.687C715.366 212.046 716.347 214.448 718.311 215.895C720.326 217.342 722.935 218.065 726.138 218.065C730.065 218.065 733.449 217.367 736.291 215.972C739.184 214.526 742 212.356 744.738 209.462V196.055ZM700.873 161.567C710.018 153.197 721.023 149.012 733.888 149.012C738.538 149.012 742.697 149.787 746.366 151.337C750.034 152.836 753.134 154.954 755.666 157.692C758.197 160.379 760.109 163.608 761.401 167.38C762.744 171.152 763.416 175.285 763.416 179.78V230H754.736C752.927 230 751.532 229.742 750.551 229.225C749.569 228.657 748.794 227.546 748.226 225.892L746.521 220.157C744.506 221.966 742.542 223.567 740.631 224.962C738.719 226.306 736.73 227.442 734.663 228.372C732.597 229.302 730.375 230 727.998 230.465C725.673 230.982 723.09 231.24 720.248 231.24C716.89 231.24 713.79 230.801 710.948 229.922C708.107 228.992 705.652 227.623 703.586 225.815C701.519 224.007 699.917 221.759 698.781 219.072C697.644 216.386 697.076 213.26 697.076 209.695C697.076 207.68 697.412 205.691 698.083 203.727C698.755 201.712 699.84 199.801 701.338 197.992C702.888 196.184 704.877 194.479 707.306 192.877C709.734 191.276 712.705 189.881 716.218 188.692C719.783 187.504 723.917 186.548 728.618 185.825C733.32 185.05 738.693 184.585 744.738 184.43V179.78C744.738 174.458 743.602 170.532 741.328 168C739.055 165.417 735.774 164.125 731.486 164.125C728.386 164.125 725.802 164.487 723.736 165.21C721.721 165.933 719.938 166.76 718.388 167.69C716.838 168.568 715.417 169.369 714.126 170.092C712.886 170.816 711.491 171.177 709.941 171.177C708.597 171.177 707.461 170.842 706.531 170.17C705.601 169.447 704.852 168.62 704.283 167.69L700.873 161.567ZM831.354 170.79C829.184 168.155 826.808 166.295 824.224 165.21C821.693 164.125 818.954 163.582 816.009 163.582C813.116 163.582 810.507 164.125 808.182 165.21C805.857 166.295 803.868 167.948 802.214 170.17C800.561 172.34 799.295 175.13 798.417 178.54C797.538 181.898 797.099 185.877 797.099 190.475C797.099 195.125 797.461 199.077 798.184 202.332C798.959 205.536 800.044 208.171 801.439 210.237C802.834 212.252 804.539 213.725 806.554 214.655C808.569 215.533 810.817 215.972 813.297 215.972C817.275 215.972 820.659 215.146 823.449 213.492C826.239 211.839 828.874 209.488 831.354 206.44V170.79ZM850.497 114.835V230H838.794C836.263 230 834.661 228.837 833.989 226.512L832.362 218.84C829.158 222.508 825.464 225.479 821.279 227.752C817.146 230.026 812.315 231.163 806.787 231.163C802.447 231.163 798.468 230.258 794.852 228.45C791.235 226.642 788.109 224.032 785.474 220.622C782.891 217.161 780.876 212.898 779.429 207.835C778.034 202.772 777.337 196.985 777.337 190.475C777.337 184.585 778.138 179.108 779.739 174.045C781.341 168.982 783.64 164.59 786.637 160.87C789.633 157.15 793.224 154.257 797.409 152.19C801.594 150.072 806.296 149.012 811.514 149.012C815.958 149.012 819.755 149.71 822.907 151.105C826.058 152.5 828.874 154.386 831.354 156.762V114.835H850.497ZM920.616 181.097C920.616 178.617 920.254 176.292 919.531 174.122C918.859 171.901 917.826 169.963 916.431 168.31C915.036 166.657 913.254 165.365 911.084 164.435C908.965 163.453 906.485 162.962 903.644 162.962C898.115 162.962 893.749 164.538 890.546 167.69C887.394 170.842 885.379 175.311 884.501 181.097H920.616ZM884.114 192.645C884.424 196.727 885.147 200.266 886.284 203.262C887.42 206.207 888.919 208.662 890.779 210.625C892.639 212.537 894.834 213.983 897.366 214.965C899.949 215.895 902.791 216.36 905.891 216.36C908.991 216.36 911.652 215.998 913.874 215.275C916.147 214.552 918.11 213.751 919.764 212.872C921.469 211.994 922.941 211.193 924.181 210.47C925.473 209.747 926.713 209.385 927.901 209.385C929.503 209.385 930.691 209.979 931.466 211.167L936.969 218.142C934.85 220.622 932.474 222.715 929.839 224.42C927.204 226.073 924.439 227.417 921.546 228.45C918.704 229.432 915.785 230.129 912.789 230.543C909.844 230.956 906.976 231.163 904.186 231.163C898.658 231.163 893.517 230.258 888.764 228.45C884.01 226.59 879.877 223.877 876.364 220.312C872.85 216.696 870.086 212.252 868.071 206.982C866.056 201.661 865.049 195.512 865.049 188.537C865.049 183.112 865.927 178.023 867.684 173.27C869.44 168.465 871.946 164.306 875.201 160.792C878.508 157.227 882.512 154.412 887.214 152.345C891.967 150.278 897.314 149.245 903.256 149.245C908.268 149.245 912.892 150.046 917.129 151.647C921.365 153.249 925.008 155.6 928.056 158.7C931.104 161.748 933.481 165.52 935.186 170.015C936.943 174.458 937.821 179.547 937.821 185.282C937.821 188.176 937.511 190.139 936.891 191.172C936.271 192.154 935.083 192.645 933.326 192.645H884.114ZM952.186 230V150.485H963.889C966.369 150.485 967.996 151.647 968.771 153.972L970.011 159.862C971.406 158.312 972.853 156.892 974.351 155.6C975.901 154.308 977.529 153.197 979.234 152.267C980.991 151.337 982.851 150.614 984.814 150.097C986.829 149.529 989.025 149.245 991.401 149.245C996.413 149.245 1000.52 150.614 1003.72 153.352C1006.98 156.039 1009.41 159.63 1011.01 164.125C1012.25 161.49 1013.8 159.242 1015.66 157.382C1017.52 155.471 1019.56 153.921 1021.78 152.732C1024 151.544 1026.35 150.666 1028.83 150.097C1031.37 149.529 1033.9 149.245 1036.43 149.245C1040.82 149.245 1044.72 149.917 1048.13 151.26C1051.54 152.603 1054.41 154.567 1056.73 157.15C1059.06 159.733 1060.82 162.885 1062 166.605C1063.24 170.325 1063.86 174.587 1063.86 179.392V230H1044.72V179.392C1044.72 174.329 1043.61 170.532 1041.39 168C1039.17 165.417 1035.91 164.125 1031.62 164.125C1029.66 164.125 1027.83 164.461 1026.12 165.132C1024.47 165.804 1023 166.786 1021.7 168.077C1020.46 169.317 1019.48 170.893 1018.76 172.805C1018.04 174.717 1017.67 176.912 1017.67 179.392V230H998.454V179.392C998.454 174.071 997.369 170.196 995.199 167.767C993.081 165.339 989.955 164.125 985.821 164.125C983.031 164.125 980.422 164.822 977.994 166.217C975.617 167.561 973.396 169.421 971.329 171.797V230H952.186ZM1152.17 150.485L1108.85 251.855C1108.28 253.198 1107.53 254.206 1106.6 254.878C1105.72 255.601 1104.35 255.963 1102.49 255.963H1088.23L1103.11 224.032L1070.95 150.485H1087.77C1089.27 150.485 1090.43 150.847 1091.26 151.57C1092.13 152.293 1092.78 153.12 1093.19 154.05L1110.09 195.28C1110.66 196.675 1111.12 198.07 1111.48 199.465C1111.9 200.86 1112.28 202.281 1112.65 203.727C1113.11 202.281 1113.58 200.86 1114.04 199.465C1114.51 198.018 1115.02 196.597 1115.59 195.202L1131.56 154.05C1131.97 153.017 1132.64 152.164 1133.57 151.492C1134.55 150.821 1135.64 150.485 1136.83 150.485H1152.17Z" fill="#666668"/>
</svg>
